<?xml version="1.0" encoding="UTF-8" standalone="no"?>
<svg
   xmlns:dc="http://purl.org/dc/elements/1.1/"
   xmlns:cc="http://creativecommons.org/ns#"
   xmlns:rdf="http://www.w3.org/1999/02/22-rdf-syntax-ns#"
   xmlns:svg="http://www.w3.org/2000/svg"
   xmlns="http://www.w3.org/2000/svg"
   id="svg8"
   version="1.1"
   viewBox="0 0 55.827083 17.197917"
   height="65"
   width="211">
  <defs
     id="defs2" />
  <metadata
     id="metadata5">
    <rdf:RDF>
      <cc:Work
         rdf:about="">
        <dc:format>image/svg+xml</dc:format>
        <dc:type
           rdf:resource="http://purl.org/dc/dcmitype/StillImage" />
        <dc:title></dc:title>
      </cc:Work>
    </rdf:RDF>
  </metadata>
  <g
     transform="translate(0,-279.80208)"
     id="layer1">
    <g
       transform="translate(-58.674456,155.46881)"
       id="g928">
      <path
         style="font-style:normal;font-weight:normal;font-size:4.64643097px;line-height:125%;font-family:sans-serif;letter-spacing:4.28197622px;word-spacing:0px;fill:#808080;fill-opacity:1;stroke:none;stroke-width:0.82318652px;stroke-linecap:butt;stroke-linejoin:miter;stroke-opacity:1"
         d="M 222.08398,457.49023 V 468 h 5.5 c 1.07639,0 1.96181,-0.0655 2.65625,-0.19727 0.70139,-0.13178 1.34245,-0.35348 1.92579,-0.66406 0.49305,-0.25882 0.88606,-0.58828 1.17773,-0.98828 0.29167,-0.4 0.4375,-0.86048 0.4375,-1.38281 0,-0.7294 -0.30208,-1.33135 -0.90625,-1.80664 -0.60417,-0.47998 -1.42991,-0.79357 -2.47852,-0.93946 v -0.0566 c 0.625,-0.21175 1.125,-0.49159 1.5,-0.83984 0.375,-0.35293 0.5625,-0.77852 0.5625,-1.27734 0,-0.44233 -0.12978,-0.82141 -0.38671,-1.13672 -0.25695,-0.32 -0.66884,-0.58087 -1.23829,-0.78321 -0.51389,-0.17889 -1.05273,-0.29707 -1.61523,-0.35351 -0.5625,-0.0564 -1.40907,-0.084 -2.54102,-0.084 z m 32.26368,0 5.47851,6.04883 V 468 h 2.0625 v -4.60938 l 5.45899,-5.90039 h -2.19727 l -4.28125,4.70118 -4.24023,-4.70118 z m 61.96484,0 V 468 h 5.5 c 1.07639,0 1.9618,-0.0655 2.65625,-0.19727 0.70139,-0.13178 1.3444,-0.35348 1.92773,-0.66406 0.49305,-0.25882 0.88607,-0.58828 1.17774,-0.98828 0.29167,-0.4 0.4375,-0.86048 0.4375,-1.38281 0,-0.7294 -0.30209,-1.33135 -0.90625,-1.80664 -0.60417,-0.47998 -1.43186,-0.79357 -2.48047,-0.93946 v -0.0566 c 0.625,-0.21175 1.125,-0.49159 1.5,-0.83984 0.375,-0.35293 0.5625,-0.77852 0.5625,-1.27734 0,-0.44233 -0.12783,-0.82141 -0.38477,-1.13672 -0.25694,-0.32 -0.67079,-0.58087 -1.24023,-0.78321 -0.51389,-0.17889 -1.05078,-0.29707 -1.61328,-0.35351 -0.5625,-0.0564 -1.41102,-0.084 -2.54297,-0.084 z m 34.28516,0 V 468 h 2.0625 v -4.17969 h 2.90625 L 360.75391,468 h 2.67773 l -5.83398,-4.5957 c 0.98611,-0.25883 1.76172,-0.64217 2.32422,-1.15039 0.56249,-0.51296 0.84374,-1.14863 0.84374,-1.90625 10e-6,-0.56 -0.16102,-1.02049 -0.48046,-1.38282 -0.31251,-0.36719 -0.75,-0.67028 -1.3125,-0.91015 -0.50001,-0.21163 -1.0625,-0.35738 -1.6875,-0.4375 -0.625,-0.0847 -1.40625,-0.12696 -2.34375,-0.12696 z m 38.32812,0 L 383.2793,468 h 2.09375 l 1.52148,-2.92969 h 6.70703 L 395.12305,468 h 2.19726 l -5.64453,-10.50977 z m 30.41016,0 V 468 h 3.91601 c 1.4236,0 2.56945,-0.0655 3.4375,-0.19727 0.87501,-0.13178 1.66667,-0.34611 2.375,-0.64257 1.02083,-0.42822 1.83614,-1.03018 2.44727,-1.80664 0.61805,-0.77647 0.92773,-1.6424 0.92773,-2.59766 0,-1.02115 -0.29448,-1.90298 -0.88476,-2.64648 -0.59026,-0.74354 -1.41318,-1.34007 -2.46875,-1.78711 -0.61806,-0.25883 -1.37566,-0.46154 -2.27149,-0.60743 -0.88889,-0.15067 -2.08961,-0.22461 -3.60351,-0.22461 z m -195.18946,1.19141 h 2.45704 c 0.6875,0 1.26519,0.0178 1.73046,0.0508 0.46528,0.028 0.86111,0.10518 1.1875,0.23242 0.27778,0.10825 0.47852,0.24972 0.60352,0.42383 0.125,0.17411 0.1875,0.38847 0.1875,0.64258 0,0.30574 -0.0701,0.57086 -0.20898,0.79687 -0.13195,0.22098 -0.36112,0.40162 -0.6875,0.54297 -0.32639,0.14111 -0.68056,0.23609 -1.0625,0.28321 -0.38195,0.0423 -0.89518,0.0625 -1.54102,0.0625 h -2.66602 z m 94.22852,0 h 2.45898 c 0.68751,0 1.26325,0.0178 1.72852,0.0508 0.46528,0.028 0.86111,0.10518 1.1875,0.23242 0.27778,0.10825 0.48047,0.24972 0.60547,0.42383 0.125,0.17411 0.1875,0.38847 0.1875,0.64258 0,0.30574 -0.0701,0.57086 -0.20899,0.79687 -0.13194,0.22098 -0.36111,0.40162 -0.6875,0.54297 -0.32639,0.14111 -0.68055,0.23609 -1.0625,0.28321 -0.38194,0.0423 -0.89518,0.0625 -1.54101,0.0625 H 318.375 Z m 103.02344,0.006 h 1.9375 c 0.95833,0 1.78125,0.0483 2.46875,0.14258 0.68749,0.0893 1.33616,0.25099 1.94726,0.48633 0.84029,0.32471 1.47288,0.76927 1.89649,1.33398 0.42361,0.56469 0.63476,1.2585 0.63476,2.08203 0,0.8188 -0.19509,1.50099 -0.58398,2.04688 -0.38194,0.54586 -0.95767,0.9862 -1.72852,1.32031 -0.61805,0.2683 -1.29796,0.45201 -2.04101,0.55078 -0.7361,0.0988 -1.60069,0.14844 -2.59375,0.14844 h -1.9375 z m -68.73828,0.002 h 2.42773 c 0.55556,0 1.03755,0.0275 1.44727,0.084 0.40971,0.0516 0.76388,0.14663 1.0625,0.2832 0.36112,0.15995 0.61871,0.35841 0.77148,0.59375 0.15972,0.23058 0.24024,0.4957 0.24024,0.79688 -10e-6,0.39526 -0.0777,0.72164 -0.23047,0.98046 -0.14584,0.25399 -0.375,0.47994 -0.6875,0.67774 -0.34028,0.21163 -0.75217,0.35737 -1.23829,0.4375 -0.48611,0.0753 -1.0562,0.11328 -1.70898,0.11328 h -2.08398 z m 37.58789,0.0215 2.71875,5.16015 h -5.44727 z m -166.10157,4.18554 h 3.23829 c 0.68055,0 1.25824,0.0191 1.73046,0.0566 0.47917,0.033 0.88542,0.1089 1.21875,0.22657 0.49304,0.17406 0.83202,0.38531 1.01954,0.63476 0.18751,0.2494 0.28125,0.58623 0.28125,1.00977 0,0.37173 -0.089,0.67482 -0.26954,0.91016 -0.18055,0.23536 -0.46657,0.44352 -0.85546,0.62695 -0.36806,0.16932 -0.83963,0.2875 -1.41602,0.35351 -0.57639,0.0612 -1.31597,0.0918 -2.21875,0.0918 h -2.72852 z m 94.22852,0 h 3.24023 c 0.68056,0 1.2563,0.0191 1.72852,0.0566 0.47917,0.033 0.88542,0.1089 1.21875,0.22657 0.49304,0.17406 0.83397,0.38531 1.02148,0.63476 0.18752,0.2494 0.28125,0.58623 0.28125,1.00977 0,0.37173 -0.0909,0.67482 -0.27148,0.91016 -0.18056,0.23536 -0.46462,0.44352 -0.85352,0.62695 -0.36805,0.16932 -0.83962,0.2875 -1.41601,0.35351 -0.57639,0.0612 -1.31598,0.0918 -2.21875,0.0918 H 318.375 Z"
         transform="matrix(0.26458334,0,0,0.26458334,0,17.599992)"
         id="path905" />
      <path
         style="font-style:normal;font-variant:normal;font-weight:normal;font-stretch:normal;font-size:13.3582983px;line-height:125%;font-family:'Marck Script';-inkscape-font-specification:'Marck Script, Normal';font-variant-ligatures:normal;font-variant-caps:normal;font-variant-numeric:normal;font-feature-settings:normal;text-align:start;letter-spacing:0px;word-spacing:0px;writing-mode:lr-tb;text-anchor:start;fill:#aa0000;fill-opacity:0.96470588;stroke:none;stroke-width:2.36662769px;stroke-linecap:butt;stroke-linejoin:miter;stroke-opacity:1"
         d="m 367.10352,418.68164 c -0.32829,0.60465 -0.6164,1.17669 -0.78125,1.63477 -0.15001,0.4168 -0.25986,0.83977 -0.37891,1.26171 h 62.78516 v 26.57422 h -5.32032 c -0.0484,0.69056 -0.0968,1.41201 -0.22265,2.19532 -0.0438,0.27174 -0.10895,0.46013 -0.16602,0.68554 h 8.61133 v -32.35156 z m -131.86914,5.67383 c -0.97612,1.68292 -2.17032,4.84532 -3.58399,9.49023 -1.41367,4.61125 -2.20476,7.80984 -2.37305,9.59375 l 2.87696,0.95899 c 0.74049,-2.65903 2.44057,-5.8728 5.09961,-9.64258 2.69269,-3.76978 4.79786,-5.6543 6.3125,-5.6543 0.50488,0 0.92513,0.16733 1.26171,0.50391 0.3366,0.30294 0.50391,0.8088 0.50391,1.51562 0,0.70685 -0.55528,2.91082 -1.66601,6.61329 C 242.55528,441.43677 242,443.33841 242,443.43945 l 3.0293,1.06055 c 1.31269,-2.76001 2.32246,-4.83093 3.02929,-6.21094 0.40391,-0.74048 0.89265,-1.66464 1.46485,-2.77539 0.60585,-1.11073 1.14401,-1.97031 1.61523,-2.57617 0.50488,-0.60586 1.04304,-1.22767 1.61524,-1.86719 0.60585,-0.63949 1.2125,-1.094 1.81836,-1.36328 0.63951,-0.30294 1.26132,-0.45508 1.86718,-0.45508 0.60586,0 1.07748,0.16926 1.41407,0.50586 0.37025,0.33658 0.53952,0.77397 0.50586,1.3125 -0.0673,1.17806 -0.65685,2.8933 -1.76758,5.14844 -1.11074,2.25514 -1.66602,3.85444 -1.66602,4.79687 0,0.90879 0.2681,1.65047 0.80664,2.22266 0.5722,0.53856 1.36329,0.80664 2.37305,0.80664 2.49074,0 4.69669,-1.71719 6.61523,-5.15039 l -1.06054,-1.00976 c -1.41367,1.68294 -2.55847,2.52539 -3.4336,2.52539 -0.4039,0 -0.74049,-0.15214 -1.00976,-0.45508 -0.26927,-0.30292 -0.4043,-0.77259 -0.4043,-1.41211 0,-0.67316 0.62377,-2.27245 1.86914,-4.79688 1.27903,-2.52439 1.91797,-4.32528 1.91797,-5.40234 0,-1.11075 -0.27005,-1.93608 -0.80859,-2.47461 -0.53854,-0.57219 -1.26114,-0.85742 -2.16993,-0.85742 -3.66879,0 -7.8258,3.7348 -12.4707,11.20703 0.33659,-1.14439 0.79108,-2.70945 1.36328,-4.69531 0.60586,-1.98587 0.90819,-3.3151 0.90821,-3.98828 0,-1.71659 -0.85763,-2.57422 -2.57422,-2.57422 -1.58196,0 -3.34858,0.8405 -5.30078,2.52344 -1.95222,1.64928 -4.37684,4.54552 -7.27149,8.68554 0.30293,-1.81757 0.65664,-3.51765 1.06055,-5.09961 0.4039,-1.61559 1.12845,-3.58573 2.17187,-5.9082 z m 36.78906,0.35351 c -1.31269,1.88488 -2.50691,4.22391 -3.58399,7.01758 -1.04342,2.76002 -1.5664,4.9146 -1.5664,6.46289 0,1.54832 0.37082,2.72542 1.11133,3.53321 0.77415,0.80781 1.78392,1.21093 3.02929,1.21093 1.27903,0 2.49037,-0.2681 3.63477,-0.80664 2.32245,-1.00976 4.93152,-3.68537 7.82617,-8.02734 l -2.72656,9.5918 c -9.76103,3.53416 -14.64063,8.21221 -14.64063,14.03515 0,1.51466 0.42025,2.71083 1.26172,3.58594 0.84147,0.87514 1.96915,1.3125 3.38281,1.3125 2.86099,0 5.13152,-1.11055 6.81446,-3.33203 0.84146,-1.11073 1.56602,-2.23842 2.17187,-3.38281 0.63952,-1.11076 1.26133,-2.75945 1.86719,-4.94727 0.63951,-2.15415 1.16249,-4.34297 1.56641,-6.56445 2.99563,-1.11065 4.56068,-1.71537 4.69531,-1.81641 l -0.15235,-1.31445 -4.08984,1.61719 c 0.33659,-1.54833 0.96036,-3.77138 1.86914,-6.66602 0.94245,-2.9283 1.54714,-4.94784 1.81641,-6.05859 l -1.81641,-1.0586 c -2.92831,3.93807 -5.10001,6.57944 -6.51367,7.92578 -1.38001,1.31271 -2.62559,1.96875 -3.73633,1.96875 -1.11074,0 -1.95124,-0.25291 -2.52344,-0.75781 -0.57219,-0.50487 -0.85937,-1.49752 -0.85937,-2.97851 0,-1.48097 0.74167,-3.7515 2.22265,-6.81446 0.84148,-1.68287 1.3131,-2.57474 1.41407,-2.67578 z m 7.42187,20.49805 c -1.75025,8.48199 -4.30795,12.72266 -7.67383,12.72266 -0.70683,0 -1.29635,-0.25292 -1.76757,-0.75781 -0.47123,-0.50488 -0.70703,-1.16093 -0.70703,-1.96876 0,-2.15415 1.51564,-4.37525 4.54492,-6.66406 1.61562,-1.24535 3.48301,-2.35593 5.60351,-3.33203 z m 40.06641,2.94531 c -0.0906,0.75852 -0.1983,1.51469 -0.3457,2.13672 -0.0635,0.26835 -0.15691,0.47939 -0.23243,0.74414 h 78.98243 c 0.21883,-0.4052 0.33744,-0.68225 0.71679,-1.27734 0.35263,-0.55279 0.79795,-1.09494 1.26563,-1.60352 z"
         transform="matrix(0.26458334,0,0,0.26458334,0,17.599992)"
         id="path895" />
      <path
         style="font-style:normal;font-variant:normal;font-weight:normal;font-stretch:normal;font-size:13.3582983px;line-height:125%;font-family:'Marck Script';-inkscape-font-specification:'Marck Script, Normal';font-variant-ligatures:normal;font-variant-caps:normal;font-variant-numeric:normal;font-feature-settings:normal;text-align:start;letter-spacing:0px;word-spacing:0px;writing-mode:lr-tb;text-anchor:start;fill:#000000;fill-opacity:0.96470588;stroke:none;stroke-width:2.36662769px;stroke-linecap:butt;stroke-linejoin:miter;stroke-opacity:1"
         d="m 353.90234,403.80273 c -3.26489,5.92393 -6.44441,12.78885 -9.54101,20.59766 -3.0966,7.77517 -4.64649,12.84116 -4.64649,15.19727 0,1.21171 0.32143,2.22148 0.96094,3.02929 0.63951,0.80781 1.4629,1.21289 2.47266,1.21289 1.00976,0 1.91875,-0.38796 2.72656,-1.16211 0.84147,-0.80781 1.83412,-2.1028 2.97852,-3.88671 l -1.06055,-0.85938 c -0.94245,1.41364 -1.88373,2.12109 -2.82617,2.12109 -1.17806,0 -1.76758,-0.79108 -1.76758,-2.37304 0,-2.76002 1.32924,-7.28786 3.98828,-13.58203 2.65904,-6.32784 5.63895,-12.68883 8.9375,-19.08399 z m 13.70704,0 c -3.26491,5.92393 -6.44637,12.78885 -9.54297,20.59766 -3.0966,7.77517 -4.64453,12.84116 -4.64453,15.19727 0,1.21171 0.31947,2.22148 0.95898,3.02929 0.63952,0.80781 1.46485,1.21289 2.47461,1.21289 1.00976,0 1.91875,-0.38796 2.72656,-1.16211 0.84147,-0.80781 1.83412,-2.1028 2.97852,-3.88671 L 361.5,437.93164 c -0.94244,1.41364 -1.88373,2.12109 -2.82617,2.12109 -1.17806,0 -1.76758,-0.79108 -1.76758,-2.37304 0,-2.76002 1.32924,-7.28786 3.98828,-13.58203 2.65904,-6.32784 5.63699,-12.68883 8.93555,-19.08399 z M 222.0918,418.68164 v 1.44531 30.90625 h 39.01758 c 0.30942,-0.48631 0.65137,-0.98966 1.05273,-1.47461 0.43075,-0.52051 1.07336,-0.98751 1.72851,-1.40625 H 224.9707 v -26.57422 h 115.56836 c 0.0466,-0.0998 0.0802,-0.2083 0.12891,-0.30468 0.38929,-0.77031 1.02106,-1.70694 1.65039,-2.5918 z m 187.09375,4.35547 c -1.31271,1.88487 -2.50888,4.22586 -3.58594,7.01953 -1.04343,2.76001 -1.56445,4.91264 -1.56445,6.46094 0,1.54829 0.37084,2.72734 1.11132,3.53515 0.77415,0.80782 1.78392,1.21094 3.0293,1.21094 1.27904,0 2.49038,-0.26811 3.63477,-0.80664 2.32244,-1.00976 4.93153,-3.68537 7.82617,-8.02734 l -2.72656,9.59179 c -9.76104,3.53416 -14.64258,8.21222 -14.64258,14.03516 0,1.51466 0.42024,2.71083 1.26172,3.58594 0.84145,0.87514 1.96914,1.3125 3.38281,1.3125 2.861,0 5.13348,-1.11055 6.81641,-3.33203 0.84147,-1.11073 1.56601,-2.23843 2.17187,-3.38282 0.63952,-1.11075 1.26133,-2.7614 1.86719,-4.94921 0.63949,-2.15416 1.16055,-4.34102 1.56445,-6.5625 2.99573,-1.11066 4.56272,-1.71732 4.69727,-1.81836 l -0.15235,-1.3125 -4.08984,1.61523 c 0.33658,-1.5483 0.96034,-3.76942 1.86914,-6.66406 0.94244,-2.9283 1.54715,-4.94784 1.81641,-6.0586 l -1.81641,-1.06054 c -2.92833,3.93806 -5.1,6.58139 -6.51367,7.92773 -1.38001,1.31271 -2.6256,1.96875 -3.73633,1.96875 -1.11073,0 -1.95124,-0.25292 -2.52344,-0.75781 -0.57222,-0.50487 -0.85937,-1.49752 -0.85937,-2.97852 0,-1.48097 0.74166,-3.75345 2.22265,-6.8164 0.8414,-1.68287 1.31107,-2.57474 1.41211,-2.67578 z m -15.1543,0.20312 -2.82617,0.75782 c 0,4.03903 -0.45451,7.3707 -1.36328,9.99609 -0.26928,0.74049 -1.33041,3.21453 -3.18164,7.42188 l 2.8789,1.26171 c 0.63952,-1.11075 1.56565,-2.99527 2.77735,-5.65429 1.24538,-2.69271 2.32168,-4.67802 3.23047,-5.95703 0.90879,-1.27905 1.86718,-1.91993 2.87695,-1.91993 1.00976,0 1.51562,0.45449 1.51562,1.36329 0,0.4712 -0.2358,1.22805 -0.70703,2.27148 l 1.21094,0.96094 c 2.08683,-2.01953 3.13086,-3.93829 3.13086,-5.75586 0,-0.90878 -0.27005,-1.65046 -0.8086,-2.22266 -0.53853,-0.57222 -1.22688,-0.85742 -2.06835,-0.85742 -2.32245,0 -5.18445,3.07873 -8.58399,9.23828 0.77402,-2.69269 1.26277,-4.62663 1.46484,-5.80469 0.20192,-1.21171 0.35209,-2.91179 0.45313,-5.09961 z m -80.61914,0.20118 c -2.62538,0 -5.3504,0.74166 -8.17773,2.22265 -2.79369,1.44733 -5.11751,3.33186 -6.96876,5.6543 -1.85122,2.28878 -2.77539,4.54414 -2.77539,6.76562 0,1.34635 0.36889,2.42266 1.10938,3.23047 0.77415,0.80781 1.90183,1.21289 3.38281,1.21289 1.48098,0 3.13165,-0.60664 4.94922,-1.81836 1.85123,-1.21171 3.90307,-3.53362 6.1582,-6.96679 -1.31269,4.10635 -2.22168,7.28587 -2.72656,9.54101 -4.44295,1.44731 -7.99331,3.41745 -10.65234,5.90821 -2.65904,2.52439 -3.98828,5.23426 -3.98828,8.1289 0,1.44733 0.42024,2.62443 1.26172,3.53321 0.84146,0.9088 1.96914,1.36328 3.38281,1.36328 3.02928,0 5.58699,-1.43002 7.67383,-4.29102 2.08684,-2.86098 3.66901,-7.50672 4.74609,-13.93555 2.72635,-1.00963 4.25912,-1.61432 4.5957,-1.8164 l -0.0508,-1.21289 -4.24219,1.36328 c 0.70684,-3.39954 1.98666,-7.57366 3.83789,-12.52149 l -1.86914,-1.05859 c -0.94244,1.71659 -2.57403,3.78555 -4.89648,6.20898 -2.32245,2.42342 -4.05678,3.63477 -5.20117,3.63477 -0.77415,0 -1.43021,-0.28523 -1.96875,-0.85742 -0.53854,-0.5722 -0.80664,-1.29676 -0.80664,-2.17188 0,-2.05319 1.32924,-4.19063 3.98828,-6.41211 2.69269,-2.22148 5.90646,-3.53359 9.64258,-3.9375 z m 68.8125,0.20312 c -3.36586,0 -6.69754,1.49656 -9.99609,4.49219 -3.2649,2.9956 -4.89844,6.04205 -4.89844,9.13867 0,1.64926 0.52299,2.97852 1.5664,3.98828 1.04342,1.00977 2.42404,1.51563 4.14063,1.51563 1.7166,0 3.4832,-0.47163 5.30078,-1.41407 1.81755,-0.9761 3.24759,-2.18743 4.29102,-3.63476 l -1.16211,-0.91016 c -2.49075,1.64929 -4.45893,2.47461 -5.90625,2.47461 -0.67318,0 -1.32924,-0.21868 -1.96875,-0.65625 -0.63952,-0.43757 -1.11114,-1.04421 -1.41407,-1.81836 4.241,-1.51463 7.52326,-3.19759 9.84571,-5.04883 2.3561,-1.85121 3.5332,-3.68437 3.5332,-5.50195 0,-1.75025 -1.11055,-2.625 -3.33203,-2.625 z m -47.64649,0.20117 c -2.82733,0.0337 -5.65509,0.77337 -8.48242,2.22071 -2.82733,1.4473 -5.14922,3.3338 -6.96679,5.65625 -1.81757,2.2888 -2.72657,4.61069 -2.72657,6.96679 0,1.27905 0.31947,2.28881 0.95899,3.0293 0.67317,0.70682 1.65066,1.06055 2.92969,1.06055 1.27903,0 2.57403,-0.31947 3.88671,-0.95899 1.34635,-0.63949 2.92853,-1.88509 4.7461,-3.73633 l 1.86719,-1.91992 c -0.50489,1.34635 -0.75586,2.50828 -0.75586,3.48438 0,2.08683 0.99265,3.13086 2.97851,3.13086 1.04342,0 2.18822,-0.45451 3.4336,-1.36328 1.27903,-0.9088 2.15377,-1.86917 2.625,-2.87891 l -1.16211,-0.85742 c -0.1683,0.13452 -0.38699,0.30183 -0.65625,0.5039 -0.26928,0.20188 -0.47085,0.35404 -0.60547,0.45508 -0.10098,0.10104 -0.23601,0.2017 -0.4043,0.30274 -0.13463,0.10104 -0.25252,0.18467 -0.35352,0.25195 -0.10096,0.0335 -0.20174,0.0678 -0.30273,0.10156 -0.10098,0.0338 -0.31966,0.0508 -0.65625,0.0508 -0.30293,0 -0.6224,-0.15212 -0.95898,-0.45508 -0.30293,-0.33657 -0.45508,-0.7397 -0.45508,-1.21093 0,-1.14439 1.04402,-3.82 3.13086,-8.02735 l -2.1211,-1.26172 c -1.48098,2.86099 -3.33126,5.35019 -5.55273,7.47071 -2.22148,2.12049 -4.08888,3.18164 -5.60352,3.18164 -1.61562,0 -2.42382,-0.99265 -2.42382,-2.97852 0,-2.01952 1.15997,-4.03906 3.48242,-6.05859 2.35611,-2.01953 5.06596,-3.3659 8.1289,-4.03906 l 2.1211,-0.45508 z m 45.62696,2.37305 c 0.43757,0 0.82553,0.16733 1.16211,0.50391 0.3366,0.3366 0.5039,0.72456 0.5039,1.16211 0,1.17805 -0.97553,2.47305 -2.92773,3.88671 -1.95222,1.41367 -4.29122,2.59272 -7.01758,3.53516 0.26927,-2.12049 1.31329,-4.15717 3.13086,-6.10937 1.85123,-1.98587 3.56649,-2.97852 5.14844,-2.97852 z m 36.40234,17.31836 c -1.75027,8.48199 -4.30991,12.72266 -7.67578,12.72266 -0.70682,0 -1.29439,-0.25292 -1.76562,-0.75782 -0.47121,-0.50487 -0.70704,-1.16094 -0.70704,-1.96875 0,-2.15415 1.51371,-4.37525 4.54297,-6.66406 1.61563,-1.24535 3.48496,-2.35593 5.60547,-3.33203 z m -108.54687,1.26172 c -0.94245,4.51028 -2.10241,7.75827 -3.48243,9.74414 -1.38,1.98586 -2.77774,2.97851 -4.1914,2.97851 -0.70684,0 -1.29636,-0.25291 -1.76758,-0.75781 -0.47122,-0.50487 -0.70508,-1.16094 -0.70508,-1.96875 0,-1.54829 0.95841,-3.26549 2.87696,-5.15039 1.91854,-1.88487 4.34122,-3.49933 7.26953,-4.8457 z"
         transform="matrix(0.26458334,0,0,0.26458334,0,17.599992)"
         id="path872" />
    </g>
  </g>
</svg>
